<?xml version="1.0" encoding="UTF-8"?>
<svg id="Layer_1" data-name="Layer 1" xmlns="http://www.w3.org/2000/svg" viewBox="0 0 512 512">
  <defs>
    <style>
      .cls-1 {
        fill: #fff;
      }

      .cls-2 {
        fill: #374f67;
      }

      .cls-3 {
        fill: #54697e;
      }

      .cls-4 {
        fill: none;
      }
    </style>
  </defs>
  <path class="cls-3" d="M256,512c-6.02,0-12.04,0-18.73-.38-4.92-.79-9.24-.85-13.41-1.67-14.18-2.8-28.52-5.13-42.42-8.99-26.59-7.39-50.78-19.94-73.34-35.86-20.87-14.72-39.05-32.22-54.58-52.32-14.19-18.36-25.72-38.39-34.28-60.09C8.05,324.33,1.12,295.14,.96,264.51c0-1.51-.62-3.01-.96-4.51,0-2.37,0-4.74,.38-7.76,1.79-15.19,2.71-29.79,4.72-44.25,2.77-19.93,9.26-38.88,17.58-57.13,8.83-19.36,19.69-37.48,32.91-54.31,12.32-15.68,26.16-29.77,41.7-42.03,15.99-12.61,33.29-23.29,52-31.74C172.33,12.38,196.11,5.05,221.2,1.96c3.95-.49,7.87-1.3,11.8-1.96,7.35,0,14.71,0,22.53,.47,.47,41.47,.48,82.47,.04,123.56-46.13,.92-74.24,35.25-79.79,63.4-2.26,11.47-2,23.47-2.56,35.24-.34,7.11-.06,14.25-.06,21.84-3.06,0-5.53-.13-7.99,.02-8.23,.51-14.34,6.09-15.59,14.26-.33,2.13-.4,4.31-.4,6.47-.02,33.5-.03,67-.01,100.5,0,15.06,6.14,21.06,21.37,21.09,28.49,.05,56.99,.14,85.48,.68,0,41.8,0,83.14,0,124.48Z"/>
  <path class="cls-2" d="M256.47,512c-.47-41.34-.46-82.67,0-124.57,28.6-.57,56.74-.58,84.88-.59,15.46,0,21.48-5.99,21.49-21.42,0-33.3,0-66.6-.01-99.9,0-2.16-.06-4.34-.37-6.47-1.25-8.65-7.52-14.21-16.32-14.54-2.28-.09-4.56-.01-7.3-.01,0-12.98,.13-25.44-.03-37.89-.23-17.97-5.27-34.4-16.35-48.76-16.8-21.78-38.91-33.15-66.44-33.9,0-41,0-82-.01-123.47,7.35-.47,14.71-.47,22.72-.08,6.65,1.12,12.66,1.79,18.66,2.59,25.62,3.45,49.79,11.75,72.79,23.2,17.47,8.69,33.65,19.53,48.82,32.03,16.65,13.71,31.29,29.21,43.83,46.55,17.01,23.51,29.96,49.26,38.1,77.22,6.13,21.06,10.2,42.49,10.13,64.55,0,1.83,.62,3.65,.96,5.48,0,2.37,0,4.74-.39,7.75-.13,17.77-1.98,34.77-5.8,51.39-7.51,32.64-20.4,63.01-39.66,90.68-14.99,21.54-32.79,40.36-53.22,56.54-23.56,18.66-49.94,32.46-78.66,41.55-15.65,4.96-31.59,8.7-48.01,10.14-4.44,.39-8.84,1.29-13.25,1.95h-16.53Z"/>
  <path class="cls-4" d="M273.47,512c3.95-.67,8.34-1.56,12.78-1.95,16.42-1.44,32.36-5.18,48.01-10.14,28.71-9.09,55.1-22.89,78.66-41.55,20.43-16.18,38.23-35,53.22-56.54,19.26-27.67,32.15-58.03,39.66-90.68,3.82-16.61,5.67-33.61,5.8-50.94,.39,83.73,.39,167.66,.39,251.81h-238.53Z"/>
  <path class="cls-4" d="M0,260.47c.33,1.04,.95,2.54,.96,4.04,.16,30.63,7.09,59.81,18.28,88.17,8.56,21.69,20.09,41.73,34.28,60.09,15.53,20.1,33.71,37.6,54.58,52.32,22.56,15.92,46.76,28.47,73.34,35.86,13.9,3.86,28.24,6.19,42.42,8.99,4.17,.82,8.49,.88,12.94,1.67-78.73,.38-157.66,.38-236.8,.38v-251.53Z"/>
  <path class="cls-4" d="M232.53,0c-3.46,.66-7.38,1.48-11.33,1.96-25.09,3.09-48.87,10.42-71.9,20.82-18.72,8.45-36.01,19.13-52,31.74-15.54,12.25-29.38,26.34-41.7,42.03-13.22,16.83-24.08,34.95-32.91,54.31-8.32,18.25-14.8,37.21-17.58,57.13-2.01,14.45-2.93,29.06-4.72,43.8C0,168.08,0,84.15,0,0H232.53Z"/>
  <path class="cls-4" d="M512,251.53c-.33-1.36-.96-3.19-.96-5.01,.06-22.06-4-43.49-10.13-64.55-8.14-27.96-21.09-53.71-38.1-77.22-12.54-17.33-27.18-32.84-43.83-46.55-15.17-12.49-31.35-23.33-48.82-32.03-22.99-11.44-47.17-19.75-72.79-23.2-5.99-.81-12-1.47-18.19-2.59,77.41-.39,155.01-.39,232.82-.39V251.53Z"/>
  <path class="cls-1" d="M255.57,124.03c27.97,.66,50.08,12.03,66.88,33.81,11.08,14.36,16.12,30.79,16.35,48.76,.16,12.45,.03,24.91,.03,37.89,2.74,0,5.02-.07,7.3,.01,8.8,.34,15.07,5.9,16.32,14.54,.31,2.13,.36,4.31,.37,6.47,.02,33.3,.02,66.6,.01,99.9,0,15.43-6.02,21.41-21.49,21.42-28.14,0-56.28,.02-84.88,.13-28.95,.02-57.45-.06-85.94-.12-15.23-.03-21.36-6.03-21.37-21.09-.02-33.5-.01-67,.01-100.5,0-2.16,.08-4.34,.4-6.47,1.25-8.17,7.35-13.74,15.59-14.26,2.46-.15,4.94-.02,7.99-.02,0-7.59-.28-14.73,.06-21.84,.56-11.77,.3-23.77,2.56-35.24,5.55-28.15,33.66-62.47,79.79-63.4m1.29,120.39h46.22c0-14.77,.9-28.94-.2-42.95-1.81-22.99-23.58-41.48-47.65-41.26-23,1.37-40.93,15.59-45.45,37.09-1.52,7.22-1.06,14.88-1.22,22.34-.18,8.09-.04,16.19-.04,24.51,16.27,0,31.86,0,48.35,.26Z"/>
  <path class="cls-3" d="M255.96,244.15h-47.44c0-8.32-.14-16.42,.04-24.51,.17-7.46-.29-15.12,1.22-22.34,4.52-21.51,22.45-35.72,45.86-36.57,.38,28.16,.35,55.78,.31,83.41Z"/>
  <path class="cls-2" d="M256.41,244.29c-.42-27.76-.39-55.39-.36-83.46,23.25-.83,45.02,17.66,46.83,40.64,1.1,14.01,.2,28.18,.2,42.95-15.43,0-30.82,0-46.68-.13Z"/>
</svg>