<svg version="1.1" id="Layer_1" xmlns="http://www.w3.org/2000/svg" xmlns:xlink="http://www.w3.org/1999/xlink" x="0px" y="0px"
	 width="100%" viewBox="0 0 512 512" enable-background="new 0 0 512 512" xml:space="preserve">
<path fill="#53687D" opacity="1.000000" stroke="none" 
	d="
M257.000000,513.000000 
	C250.978851,513.000000 244.957703,513.000000 238.267975,512.619629 
	C233.348328,511.828979 229.028381,511.767609 224.858673,510.944885 
	C210.676102,508.146698 196.340942,505.819763 182.440796,501.957092 
	C155.854309,494.569061 131.662354,482.012573 109.097580,466.095734 
	C88.228638,451.375031 70.050713,433.872894 54.516590,413.770782 
	C40.327896,395.409698 28.795706,375.376465 20.236990,353.683044 
	C9.049147,325.325684 2.119648,296.138489 1.958002,265.512695 
	C1.950054,264.006836 1.333277,262.504150 1.000000,261.000000 
	C1.000000,258.629456 1.000000,256.258881 1.383916,253.237885 
	C3.175516,238.050110 4.097633,223.445236 6.108692,208.991867 
	C8.881300,189.065308 15.366638,170.107819 23.684687,151.858932 
	C32.509964,132.497253 43.372940,114.377731 56.593163,97.551224 
	C68.913925,81.869537 82.753105,67.777481 98.292824,55.525681 
	C114.285416,42.916832 131.578857,32.236408 150.295441,23.784704 
	C173.332916,13.381853 197.109085,6.051889 222.198318,2.962433 
	C226.152802,2.475482 230.067108,1.662328 234.000000,1.000000 
	C241.354248,1.000000 248.708496,1.000000 256.531372,1.468657 
	C257.004028,42.938728 257.008057,83.940140 256.574036,125.027863 
	C210.446060,125.952576 182.336197,160.274841 176.782150,188.424728 
	C174.518570,199.897446 174.783340,211.894058 174.219513,223.667725 
	C173.879120,230.775894 174.156876,237.913681 174.156876,245.504608 
	C171.100479,245.504608 168.623840,245.374832 166.164871,245.528320 
	C157.930313,246.042313 151.825516,251.617508 150.575897,259.784943 
	C150.250137,261.914124 150.175186,264.098633 150.173645,266.257874 
	C150.149750,299.757446 150.145645,333.257019 150.162048,366.756592 
	C150.169434,381.816132 156.301559,387.818695 171.529770,387.847992 
	C200.023895,387.902802 228.517944,387.986664 257.009064,388.523438 
	C257.004059,430.325592 257.002014,471.662811 257.000000,513.000000 
z"/>
<path fill="#364E67" opacity="1.000000" stroke="none" 
	d="
M257.467590,513.000000 
	C257.002014,471.662811 257.004059,430.325592 257.468994,388.431213 
	C286.070953,387.862152 314.210052,387.848389 342.349121,387.839172 
	C357.813782,387.834106 363.832123,381.851654 363.835938,366.421265 
	C363.844147,333.120392 363.845001,299.819489 363.823334,266.518616 
	C363.821930,264.360840 363.765961,262.179718 363.458008,260.049591 
	C362.207703,251.402161 355.936401,245.842422 347.135376,245.506790 
	C344.858948,245.419998 342.576416,245.493729 339.838409,245.493729 
	C339.838409,232.509048 339.966187,220.053635 339.807983,207.601837 
	C339.579620,189.628052 334.533234,173.200150 323.455811,158.838669 
	C306.658752,137.061859 284.541351,125.692215 257.012054,124.941551 
	C257.008057,83.940140 257.004028,42.938728 257.000000,1.468657 
	C264.354248,1.000000 271.708496,1.000000 279.715759,1.388548 
	C286.370331,2.508741 292.380432,3.176836 298.371979,3.983052 
	C323.995544,7.430940 348.166656,15.737591 371.160614,27.178352 
	C388.632812,35.871727 404.806946,46.711113 419.981018,59.205585 
	C436.632263,72.916306 451.273102,88.419411 463.812958,105.753342 
	C480.821716,129.264709 493.773651,155.010193 501.913574,182.971313 
	C508.044098,204.029938 512.109375,225.456848 512.044739,247.518585 
	C512.039368,249.344772 512.666687,251.172821 513.000000,253.000000 
	C513.000000,255.370560 513.000000,257.741119 512.606445,260.748047 
	C512.472229,278.520447 510.630981,295.519043 506.806580,312.133514 
	C499.292267,344.777924 486.402649,375.139069 467.142395,402.812164 
	C452.150574,424.352386 434.353455,443.172180 413.920593,459.356934 
	C390.360077,478.019012 363.978638,491.814056 335.264709,500.905121 
	C319.609985,505.861450 303.674957,509.605469 287.251862,511.046204 
	C282.811615,511.435730 278.416046,512.334778 274.000000,513.000000 
	C268.645081,513.000000 263.290131,513.000000 257.467590,513.000000 
z"/>
<path fill="#FFFFFF" opacity="1.000000" stroke="none" 
	d="
M274.468658,513.000000 
	C278.416046,512.334778 282.811615,511.435730 287.251862,511.046204 
	C303.674957,509.605469 319.609985,505.861450 335.264709,500.905121 
	C363.978638,491.814056 390.360077,478.019012 413.920593,459.356934 
	C434.353455,443.172180 452.150574,424.352386 467.142395,402.812164 
	C486.402649,375.139069 499.292267,344.777924 506.806580,312.133514 
	C510.630981,295.519043 512.472229,278.520447 512.606445,261.192200 
	C513.000000,344.925110 513.000000,428.850220 513.000000,513.000000 
	C433.645905,513.000000 354.291626,513.000000 274.468658,513.000000 
z"/>
<path fill="#FFFFFF" opacity="1.000000" stroke="none" 
	d="
M1.000000,261.468658 
	C1.333277,262.504150 1.950054,264.006836 1.958002,265.512695 
	C2.119648,296.138489 9.049147,325.325684 20.236990,353.683044 
	C28.795706,375.376465 40.327896,395.409698 54.516590,413.770782 
	C70.050713,433.872894 88.228638,451.375031 109.097580,466.095734 
	C131.662354,482.012573 155.854309,494.569061 182.440796,501.957092 
	C196.340942,505.819763 210.676102,508.146698 224.858673,510.944885 
	C229.028381,511.767609 233.348328,511.828979 237.799713,512.619629 
	C159.070709,513.000000 80.141434,513.000000 1.000000,513.000000 
	C1.000000,429.312561 1.000000,345.624939 1.000000,261.468658 
z"/>
<path fill="#FFFFFF" opacity="1.000000" stroke="none" 
	d="
M233.531342,1.000000 
	C230.067108,1.662328 226.152802,2.475482 222.198318,2.962433 
	C197.109085,6.051889 173.332916,13.381853 150.295441,23.784704 
	C131.578857,32.236408 114.285416,42.916832 98.292824,55.525681 
	C82.753105,67.777481 68.913925,81.869537 56.593163,97.551224 
	C43.372940,114.377731 32.509964,132.497253 23.684687,151.858932 
	C15.366638,170.107819 8.881300,189.065308 6.108692,208.991867 
	C4.097633,223.445236 3.175516,238.050110 1.383916,252.793716 
	C1.000000,169.075821 1.000000,85.151634 1.000000,1.000000 
	C78.354080,1.000000 155.708374,1.000000 233.531342,1.000000 
z"/>
<path fill="#FFFFFF" opacity="1.000000" stroke="none" 
	d="
M513.000000,252.531342 
	C512.666687,251.172821 512.039368,249.344772 512.044739,247.518585 
	C512.109375,225.456848 508.044098,204.029938 501.913574,182.971313 
	C493.773651,155.010193 480.821716,129.264709 463.812958,105.753342 
	C451.273102,88.419411 436.632263,72.916306 419.981018,59.205585 
	C404.806946,46.711113 388.632812,35.871727 371.160614,27.178352 
	C348.166656,15.737591 323.995544,7.430940 298.371979,3.983052 
	C292.380432,3.176836 286.370331,2.508741 280.184387,1.388548 
	C357.596558,1.000000 435.193115,1.000000 513.000000,1.000000 
	C513.000000,84.687447 513.000000,168.375061 513.000000,252.531342 
z"/>
<path fill="#FEFEFE" opacity="1.000000" stroke="none" 
	d="
M256.574036,125.027863 
	C284.541351,125.692215 306.658752,137.061859 323.455811,158.838669 
	C334.533234,173.200150 339.579620,189.628052 339.807983,207.601837 
	C339.966187,220.053635 339.838409,232.509048 339.838409,245.493729 
	C342.576416,245.493729 344.858948,245.419998 347.135376,245.506790 
	C355.936401,245.842422 362.207703,251.402161 363.458008,260.049591 
	C363.765961,262.179718 363.821930,264.360840 363.823334,266.518616 
	C363.845001,299.819489 363.844147,333.120392 363.835938,366.421265 
	C363.832123,381.851654 357.813782,387.834106 342.349121,387.839172 
	C314.210052,387.848389 286.070953,387.862152 257.471954,387.966217 
	C228.517944,387.986664 200.023895,387.902802 171.529770,387.847992 
	C156.301559,387.818695 150.169434,381.816132 150.162048,366.756592 
	C150.145645,333.257019 150.149750,299.757446 150.173645,266.257874 
	C150.175186,264.098633 150.250137,261.914124 150.575897,259.784943 
	C151.825516,251.617508 157.930313,246.042313 166.164871,245.528320 
	C168.623840,245.374832 171.100479,245.504608 174.156876,245.504608 
	C174.156876,237.913681 173.879120,230.775894 174.219513,223.667725 
	C174.783340,211.894058 174.518570,199.897446 176.782150,188.424728 
	C182.336197,160.274841 210.446060,125.952576 256.574036,125.027863 
M257.868958,245.418503 
	C273.266479,245.418503 288.664001,245.418503 304.089294,245.418503 
	C304.089294,230.651352 304.988922,216.482086 303.885651,202.470505 
	C302.075745,179.485046 280.306183,160.995438 256.232025,161.214706 
	C233.227875,162.584625 215.306168,176.803757 210.782379,198.309189 
	C209.264603,205.524445 209.726395,213.184708 209.559082,220.647736 
	C209.377716,228.738220 209.517975,236.835892 209.517975,245.154205 
	C225.792038,245.154205 241.374969,245.154205 257.868958,245.418503 
z"/>
<path fill="#53687D" opacity="1.000000" stroke="none" 
	d="
M256.957916,245.154205 
	C241.374969,245.154205 225.792038,245.154205 209.517975,245.154205 
	C209.517975,236.835892 209.377716,228.738220 209.559082,220.647736 
	C209.726395,213.184708 209.264603,205.524445 210.782379,198.309189 
	C215.306168,176.803757 233.227875,162.584625 256.644379,161.742493 
	C257.023773,189.898254 256.990845,217.526230 256.957916,245.154205 
z"/>
<path fill="#364E67" opacity="1.000000" stroke="none" 
	d="
M257.413452,245.286346 
	C256.990845,217.526230 257.023773,189.898254 257.057678,161.826050 
	C280.306183,160.995438 302.075745,179.485046 303.885651,202.470505 
	C304.988922,216.482086 304.089294,230.651352 304.089294,245.418503 
	C288.664001,245.418503 273.266479,245.418503 257.413452,245.286346 
z"/>
</svg>